<svg xmlns="http://www.w3.org/2000/svg" width="480" height="480" viewBox="0 0 480 480">
 <defs>
  <linearGradient id="gm" gradientUnits="userSpaceOnUse" x1="48" y1="160" x2="432" y2="320">
   <stop offset="0" stop-color="#98c379"/><stop offset="1" stop-color="#61afef"/>
  </linearGradient>
  <linearGradient id="gd" gradientUnits="userSpaceOnUse" x1="48" y1="160" x2="432" y2="320">
   <stop offset="0" stop-color="#5d774a"/><stop offset="1" stop-color="#3b6b92"/>
  </linearGradient>
 </defs>
  <rect x="0" y="0" width="480" height="480" fill="#1a1a26"/>
  <rect x="48" y="48" width="29" height="61" fill="#5d774a"/>
  <rect x="80" y="48" width="29" height="61" fill="#98c379"/>
  <rect x="112" y="48" width="29" height="61" fill="#98c379"/>
  <rect x="48" y="176" width="29" height="61" fill="#5d774a"/>
  <rect x="80" y="176" width="29" height="61" fill="#98c379"/>
  <rect x="112" y="176" width="29" height="61" fill="#98c379"/>
  <rect x="48" y="240" width="29" height="61" fill="#5d774a"/>
  <rect x="80" y="240" width="29" height="61" fill="#98c379"/>
  <rect x="112" y="240" width="29" height="61" fill="#98c379"/>
  <rect x="48" y="304" width="29" height="61" fill="#5d774a"/>
  <rect x="80" y="304" width="29" height="61" fill="#98c379"/>
  <rect x="112" y="304" width="29" height="61" fill="#98c379"/>
  <rect x="48" y="368" width="29" height="61" fill="#5d774a"/>
  <rect x="80" y="368" width="29" height="61" fill="#98c379"/>
  <rect x="112" y="368" width="29" height="61" fill="#98c379"/>
  <rect x="176" y="48" width="29" height="61" fill="#3b6b92"/>
  <rect x="208" y="48" width="29" height="61" fill="#61afef"/>
  <rect x="240" y="48" width="29" height="61" fill="#61afef"/>
  <rect x="272" y="48" width="29" height="61" fill="#61afef"/>
  <rect x="304" y="48" width="29" height="61" fill="#61afef"/>
  <rect x="336" y="48" width="29" height="61" fill="#61afef"/>
  <rect x="368" y="48" width="29" height="61" fill="#61afef"/>
  <rect x="400" y="48" width="29" height="61" fill="#61afef"/>
  <rect x="176" y="112" width="29" height="61" fill="#3b6b92"/>
  <rect x="208" y="112" width="29" height="61" fill="#61afef"/>
  <rect x="240" y="112" width="29" height="61" fill="#61afef"/>
  <rect x="176" y="176" width="29" height="61" fill="#3b6b92"/>
  <rect x="208" y="176" width="29" height="61" fill="#61afef"/>
  <rect x="240" y="176" width="29" height="61" fill="#61afef"/>
  <rect x="272" y="176" width="29" height="61" fill="#61afef"/>
  <rect x="304" y="176" width="29" height="61" fill="#61afef"/>
  <rect x="336" y="176" width="29" height="61" fill="#61afef"/>
  <rect x="368" y="176" width="29" height="61" fill="#61afef"/>
  <rect x="400" y="176" width="29" height="61" fill="#61afef"/>
  <rect x="176" y="240" width="29" height="61" fill="#3b6b92"/>
  <rect x="208" y="240" width="29" height="61" fill="#61afef"/>
  <rect x="240" y="240" width="29" height="61" fill="#61afef"/>
  <rect x="176" y="304" width="29" height="61" fill="#3b6b92"/>
  <rect x="208" y="304" width="29" height="61" fill="#61afef"/>
  <rect x="240" y="304" width="29" height="61" fill="#61afef"/>
  <rect x="176" y="368" width="29" height="61" fill="#3b6b92"/>
  <rect x="208" y="368" width="29" height="61" fill="#61afef"/>
  <rect x="240" y="368" width="29" height="61" fill="#61afef"/>
</svg>
